{
    "asset": {
        "version": "2.0",
        "generator": "babylon.js glTF exporter for 3ds max 2018 v1.3.33"
    },
    "scene": 0,
    "scenes": [
        {
            "nodes": [
                0
            ],
            "extensions": {}
        }
    ],
    "nodes": [
        {
            "mesh": 0,
            "translation": [
                0.0,
                0.0,
                0.0
            ],
            "rotation": [
                0.7071068,
                0.0,
                0.0,
                0.7071067
            ],
            "scale": [
                0.0134588219,
                0.0134588219,
                0.0134588219
            ],
            "name": "vehicle_enemyShip"
        }
    ],
    "meshes": [
        {
            "primitives": [
                {
                    "attributes": {
                        "POSITION": 1,
                        "NORMAL": 2,
                        "TEXCOORD_0": 3
                    },
                    "indices": 0
                }
            ],
            "name": "vehicle_enemyShip"
        }
    ],
    "accessors": [
        {
            "bufferView": 0,
            "componentType": 5123,
            "count": 8034,
            "type": "SCALAR",
            "name": "accessorIndices"
        },
        {
            "bufferView": 1,
            "componentType": 5126,
            "count": 8034,
            "max": [
                74.8005753,
                70.85203,
                23.2686481
            ],
            "min": [
                -74.8005753,
                -70.85201,
                -23.2686481
            ],
            "type": "VEC3",
            "name": "accessorPositions"
        },
        {
            "bufferView": 1,
            "byteOffset": 96408,
            "componentType": 5126,
            "count": 8034,
            "type": "VEC3",
            "name": "accessorNormals"
        },
        {
            "bufferView": 2,
            "componentType": 5126,
            "count": 8034,
            "type": "VEC2",
            "name": "accessorUVs"
        }
    ],
    "bufferViews": [
        {
            "buffer": 0,
            "byteLength": 16068,
            "name": "bufferViewScalar"
        },
        {
            "buffer": 0,
            "byteOffset": 16068,
            "byteLength": 192816,
            "byteStride": 12,
            "name": "bufferViewFloatVec3"
        },
        {
            "buffer": 0,
            "byteOffset": 208884,
            "byteLength": 64272,
            "byteStride": 8,
            "name": "bufferViewFloatVec2"
        }
    ],
    "buffers": [
        {
            "uri": "enemy_ship.bin",
            "byteLength": 273156
        }
    ]
}