{
    "asset": {
        "version": "2.0",
        "generator": "babylon.js glTF exporter for 3ds max 2018 v1.3.33"
    },
    "scene": 0,
    "scenes": [
        {
            "nodes": [
                0
            ],
            "extensions": {}
        }
    ],
    "nodes": [
        {
            "mesh": 0,
            "translation": [
                0.0,
                0.0,
                0.0
            ],
            "rotation": [
                0.7071068,
                0.0,
                0.0,
                0.7071067
            ],
            "scale": [
                0.0178854857,
                0.0178854857,
                0.0178854857
            ],
            "name": "vehicle_playerShip"
        }
    ],
    "meshes": [
        {
            "primitives": [
                {
                    "attributes": {
                        "POSITION": 1,
                        "NORMAL": 2,
                        "COLOR_0": 3,
                        "TEXCOORD_0": 4
                    },
                    "indices": 0
                }
            ],
            "name": "vehicle_playerShip"
        }
    ],
    "accessors": [
        {
            "bufferView": 0,
            "componentType": 5123,
            "count": 6660,
            "type": "SCALAR",
            "name": "accessorIndices"
        },
        {
            "bufferView": 1,
            "componentType": 5126,
            "count": 6660,
            "max": [
                55.8628426,
                84.28868,
                17.0748634
            ],
            "min": [
                -56.0007324,
                -84.28869,
                -16.17247
            ],
            "type": "VEC3",
            "name": "accessorPositions"
        },
        {
            "bufferView": 1,
            "byteOffset": 79920,
            "componentType": 5126,
            "count": 6660,
            "type": "VEC3",
            "name": "accessorNormals"
        },
        {
            "bufferView": 2,
            "componentType": 5126,
            "count": 6660,
            "type": "VEC4",
            "name": "accessorColors"
        },
        {
            "bufferView": 3,
            "componentType": 5126,
            "count": 6660,
            "type": "VEC2",
            "name": "accessorUVs"
        }
    ],
    "bufferViews": [
        {
            "buffer": 0,
            "byteLength": 13320,
            "name": "bufferViewScalar"
        },
        {
            "buffer": 0,
            "byteOffset": 13320,
            "byteLength": 159840,
            "byteStride": 12,
            "name": "bufferViewFloatVec3"
        },
        {
            "buffer": 0,
            "byteOffset": 173160,
            "byteLength": 106560,
            "byteStride": 16,
            "name": "bufferViewFloatVec4"
        },
        {
            "buffer": 0,
            "byteOffset": 279720,
            "byteLength": 53280,
            "byteStride": 8,
            "name": "bufferViewFloatVec2"
        }
    ],
    "buffers": [
        {
            "uri": "player_ship.bin",
            "byteLength": 333000
        }
    ]
}